<svg width="1600" height="900" viewBox="0 0 1600 900" fill="none" xmlns="http://www.w3.org/2000/svg">
  <defs>
    <linearGradient id="bg" x1="90" y1="40" x2="1450" y2="860" gradientUnits="userSpaceOnUse">
      <stop stop-color="#1A2331"/>
      <stop offset="0.58" stop-color="#0F1722"/>
      <stop offset="1" stop-color="#0A111B"/>
    </linearGradient>
    <radialGradient id="vignette" cx="0" cy="0" r="1" gradientUnits="userSpaceOnUse" gradientTransform="translate(260 100) rotate(20) scale(620 420)">
      <stop stop-color="#DDEEFF" stop-opacity="0.12"/>
      <stop offset="1" stop-color="#DDEEFF" stop-opacity="0"/>
    </radialGradient>
    <linearGradient id="panelStroke" x1="170" y1="130" x2="1450" y2="760" gradientUnits="userSpaceOnUse">
      <stop stop-color="#B2CCF0" stop-opacity="0.38"/>
      <stop offset="1" stop-color="#7A93B5" stop-opacity="0.18"/>
    </linearGradient>
    <linearGradient id="panelFill" x1="200" y1="110" x2="1340" y2="760" gradientUnits="userSpaceOnUse">
      <stop stop-color="#162131" stop-opacity="0.92"/>
      <stop offset="1" stop-color="#08111C" stop-opacity="0.96"/>
    </linearGradient>
    <linearGradient id="glass" x1="0" y1="0" x2="1" y2="1">
      <stop stop-color="#DDECFF" stop-opacity="0.22"/>
      <stop offset="0.4" stop-color="#AFC7EA" stop-opacity="0.1"/>
      <stop offset="1" stop-color="#AFC7EA" stop-opacity="0.04"/>
    </linearGradient>
    <linearGradient id="inboxFill" x1="0" y1="0" x2="0.8" y2="1">
      <stop stop-color="#D9EEFF" stop-opacity="0.9"/>
      <stop offset="1" stop-color="#AFC7E8" stop-opacity="0.62"/>
    </linearGradient>
    <linearGradient id="riverGlow" x1="350" y1="454" x2="1250" y2="454" gradientUnits="userSpaceOnUse">
      <stop stop-color="#C4E4FF" stop-opacity="0.18"/>
      <stop offset="0.5" stop-color="#E5F3FF" stop-opacity="0.92"/>
      <stop offset="1" stop-color="#C4E4FF" stop-opacity="0.18"/>
    </linearGradient>
    <linearGradient id="branchGlow" x1="1120" y1="470" x2="1338" y2="650" gradientUnits="userSpaceOnUse">
      <stop stop-color="#E2C98E"/>
      <stop offset="1" stop-color="#C8A760"/>
    </linearGradient>
    <linearGradient id="softBlue" x1="0" y1="0" x2="0" y2="1">
      <stop stop-color="#EAF6FF"/>
      <stop offset="1" stop-color="#BFD9F4"/>
    </linearGradient>
    <filter id="panelShadow" x="-20%" y="-20%" width="140%" height="140%">
      <feDropShadow dx="0" dy="28" stdDeviation="40" flood-color="#000000" flood-opacity="0.38"/>
    </filter>
    <filter id="softBlur" x="-50%" y="-50%" width="200%" height="200%">
      <feGaussianBlur stdDeviation="8" result="blur"/>
      <feMerge>
        <feMergeNode in="blur"/>
        <feMergeNode in="SourceGraphic"/>
      </feMerge>
    </filter>
    <filter id="blueBloom" x="-120%" y="-120%" width="340%" height="340%">
      <feGaussianBlur stdDeviation="12" result="glow"/>
      <feMerge>
        <feMergeNode in="glow"/>
        <feMergeNode in="SourceGraphic"/>
      </feMerge>
    </filter>
    <filter id="goldBloom" x="-150%" y="-150%" width="400%" height="400%">
      <feGaussianBlur stdDeviation="14" result="glow"/>
      <feMerge>
        <feMergeNode in="glow"/>
        <feMergeNode in="SourceGraphic"/>
      </feMerge>
    </filter>
    <style>
      .sans { font-family: -apple-system, BlinkMacSystemFont, "SF Pro Display", "Helvetica Neue", sans-serif; }
      .title { fill: #E3F1FF; font-size: 17px; font-weight: 500; letter-spacing: 0.2px; }
      .subtle { fill: #A6BBD3; font-size: 12px; font-weight: 400; }
      .panelLabel { fill: #6E829B; font-size: 13px; font-weight: 500; }
      .stage { fill: #AEBFD2; font-size: 17px; font-weight: 400; opacity: 0.55; }
      .stageActive { fill: #E3F1FF; font-size: 17px; font-weight: 500; }
      .small { fill: #7F93AA; font-size: 11px; }
    </style>
  </defs>

  <rect width="1600" height="900" fill="#0B111B"/>
  <rect width="1600" height="900" fill="url(#bg)"/>
  <rect width="1600" height="900" fill="url(#vignette)"/>

  <g opacity="0.46">
    <circle cx="94" cy="78" r="1.5" fill="#D7E7FF"/>
    <circle cx="118" cy="112" r="1" fill="#D7E7FF"/>
    <circle cx="158" cy="84" r="1.2" fill="#D7E7FF"/>
    <circle cx="220" cy="126" r="1.3" fill="#D7E7FF"/>
    <circle cx="1408" cy="118" r="1.4" fill="#D7E7FF"/>
    <circle cx="1492" cy="92" r="1.1" fill="#D7E7FF"/>
    <circle cx="1320" cy="72" r="1.2" fill="#D7E7FF"/>
  </g>

  <g filter="url(#panelShadow)">
    <path d="M220 118 H1416 C1440 118 1459 137 1459 161 V720 C1459 744 1440 763 1416 763 H345 C321 763 302 744 302 720 V187 C302 165 283 147 261 147 H213 C189 147 170 166 170 190 V804 C170 828 189 847 213 847 H1432 C1456 847 1475 828 1475 804 V161 C1475 137 1456 118 1432 118 H220 Z" fill="url(#panelFill)" stroke="url(#panelStroke)" stroke-width="2"/>
    <path d="M214 148 H302 V763 H214 C189 763 170 782 170 806 V190 C170 166 189 148 214 148 Z" fill="url(#inboxFill)" fill-opacity="0.82" stroke="#D8E9FF" stroke-opacity="0.28"/>
  </g>

  <path d="M194 136 H1460" stroke="#D4E6FF" stroke-opacity="0.12"/>
  <path d="M302 182 H1459" stroke="#D4E6FF" stroke-opacity="0.08"/>
  <path d="M304 760 H1459" stroke="#D4E6FF" stroke-opacity="0.08"/>

  <path d="M736 120 H1138 L1002 760 H302 V186 H606 L736 120 Z" fill="url(#glass)" opacity="0.28"/>

  <g transform="translate(236 154)">
    <text class="sans title" x="0" y="0">Boardroom OS</text>
    <text class="sans subtle" x="0" y="22">Near-future workflow control surface</text>
  </g>

  <g transform="translate(194 155)">
    <path d="M14 2 C7 10 7 24 14 32" stroke="#AFC5E3" stroke-width="2" stroke-linecap="round"/>
    <path d="M38 2 C31 10 31 24 38 32" stroke="#AFC5E3" stroke-width="2" stroke-linecap="round"/>
    <path d="M14 2 H38" stroke="#AFC5E3" stroke-width="2" stroke-linecap="round"/>
    <path d="M14 32 H38" stroke="#AFC5E3" stroke-width="2" stroke-linecap="round"/>
  </g>

  <g transform="translate(1335 144)" opacity="0.84">
    <circle cx="12" cy="14" r="3" fill="#DDEBFF"/>
    <path d="M8 17 H16 L14 23 H10 Z" fill="#DDEBFF"/>
    <g transform="translate(40 0)">
      <circle cx="12" cy="14" r="4" stroke="#DDEBFF" stroke-width="2"/>
      <circle cx="12" cy="14" r="1.8" fill="#DDEBFF"/>
      <path d="M12 6 V4" stroke="#DDEBFF" stroke-width="2" stroke-linecap="round"/>
      <path d="M12 24 V22" stroke="#DDEBFF" stroke-width="2" stroke-linecap="round"/>
      <path d="M20 14 H18" stroke="#DDEBFF" stroke-width="2" stroke-linecap="round"/>
      <path d="M6 14 H4" stroke="#DDEBFF" stroke-width="2" stroke-linecap="round"/>
    </g>
    <g transform="translate(94 -2)">
      <circle cx="18" cy="16" r="16" stroke="#E6D19C" stroke-width="2.5" filter="url(#goldBloom)"/>
      <circle cx="18" cy="16" r="16" stroke="#FFF1CA" stroke-opacity="0.42"/>
    </g>
  </g>

  <g transform="translate(196 216)">
    <text class="sans panelLabel" x="0" y="0">Inbox</text>
    <g transform="translate(206 -10)" opacity="0.58">
      <path d="M8 1 L10 3 L8 5" stroke="#71859E" stroke-width="1.7" stroke-linecap="round" stroke-linejoin="round"/>
      <path d="M4 3 H10" stroke="#71859E" stroke-width="1.7" stroke-linecap="round"/>
    </g>
    <g transform="translate(228 -10)" opacity="0.58">
      <path d="M2 2 H12" stroke="#71859E" stroke-width="1.7" stroke-linecap="round"/>
      <path d="M4 6 H10" stroke="#71859E" stroke-width="1.7" stroke-linecap="round"/>
      <path d="M6 10 H8" stroke="#71859E" stroke-width="1.7" stroke-linecap="round"/>
    </g>
  </g>

  <g transform="translate(190 238)">
    <rect x="0" y="0" width="90" height="6" rx="3" fill="#90A7C4" fill-opacity="0.26"/>
    <rect x="0" y="18" width="230" height="34" rx="10" fill="#E7F4FF" fill-opacity="0.32" stroke="#ECF7FF" stroke-opacity="0.25"/>
    <circle cx="18" cy="35" r="6" stroke="#9BB2CE" stroke-width="1.6"/>
    <rect x="32" y="31" width="86" height="8" rx="4" fill="#94A8C4" fill-opacity="0.56"/>
    <path d="M214 31 L221 38 L228 31" stroke="#94A8C4" stroke-width="1.8" stroke-linecap="round" stroke-linejoin="round"/>
  </g>

  <g transform="translate(188 292)">
    <rect x="0" y="0" width="236" height="42" rx="11" fill="#EBF6FF" fill-opacity="0.34" stroke="#F4FAFF" stroke-opacity="0.3"/>
    <rect x="0" y="52" width="236" height="42" rx="11" fill="#F0F7FF" fill-opacity="0.4" stroke="#F4FAFF" stroke-opacity="0.3"/>
    <rect x="0" y="104" width="236" height="42" rx="11" fill="#F3DFA5" fill-opacity="0.92" stroke="#FFF2CC" stroke-opacity="0.6" filter="url(#goldBloom)"/>
    <rect x="0" y="156" width="236" height="42" rx="11" fill="#EBF6FF" fill-opacity="0.34" stroke="#F4FAFF" stroke-opacity="0.3"/>
    <rect x="0" y="208" width="236" height="42" rx="11" fill="#EBF6FF" fill-opacity="0.34" stroke="#F4FAFF" stroke-opacity="0.3"/>

    <g transform="translate(14 14)">
      <rect x="0" y="0" width="13" height="13" rx="3" stroke="#9BB1CC" stroke-width="1.7"/>
      <rect x="28" y="3" width="106" height="7" rx="3.5" fill="#90A6C3"/>
    </g>
    <g transform="translate(14 66)">
      <path d="M1 11 H12 L16 1 H5 Z" stroke="#9EADBE" stroke-width="1.6" stroke-linejoin="round"/>
      <rect x="28" y="3" width="110" height="7" rx="3.5" fill="#8DA6C6"/>
    </g>
    <g transform="translate(14 118)">
      <path d="M8 0 L16 14 H0 Z" fill="#B28C39"/>
      <rect x="28" y="3" width="102" height="7" rx="3.5" fill="#9A7B31"/>
      <rect x="192" y="3" width="8" height="8" rx="4" fill="#CEB15F"/>
    </g>
    <g transform="translate(14 170)">
      <rect x="0" y="0" width="13" height="13" rx="3" stroke="#9BB1CC" stroke-width="1.7"/>
      <rect x="28" y="3" width="122" height="7" rx="3.5" fill="#90A6C3"/>
    </g>
    <g transform="translate(14 222)">
      <rect x="0" y="0" width="13" height="13" rx="3" stroke="#9BB1CC" stroke-width="1.7"/>
      <rect x="28" y="3" width="116" height="7" rx="3.5" fill="#90A6C3"/>
    </g>
  </g>

  <g transform="translate(566 217)">
    <text class="sans panelLabel" x="0" y="0">Workflow</text>
    <rect x="104" y="-12" width="146" height="28" rx="14" fill="#DCEEFF" fill-opacity="0.9" filter="url(#softBlur)"/>
    <text class="sans subtle" x="120" y="6" fill="#566A82">All</text>
    <path d="M224 -1 L230 5 L236 -1" stroke="#60748D" stroke-width="1.7" stroke-linecap="round" stroke-linejoin="round"/>
  </g>

  <g transform="translate(1136 205)">
    <rect x="0" y="0" width="148" height="30" rx="15" fill="#E8F4FF" fill-opacity="0.9" filter="url(#softBlur)"/>
    <text class="sans subtle" x="30" y="19" fill="#51647B">+ New Item</text>
    <rect x="164" y="0" width="44" height="30" rx="15" fill="#E8F4FF" fill-opacity="0.9" filter="url(#softBlur)"/>
    <rect x="224" y="0" width="152" height="30" rx="15" fill="#E8F4FF" fill-opacity="0.9" filter="url(#softBlur)"/>
    <text class="sans subtle" x="280" y="19" fill="#51647B">Add to Item</text>
  </g>

  <g opacity="0.48">
    <text class="sans stage" x="610" y="430">Intake</text>
    <text class="sans stage" x="802" y="430">Plan</text>
    <text class="sans stageActive" x="987" y="430">Build</text>
    <text class="sans stage" x="1180" y="430">Check</text>
    <text class="sans stage" x="1364" y="430">Review</text>
  </g>

  <g opacity="0.25">
    <text class="sans stage" x="608" y="570">Intake</text>
    <text class="sans stage" x="800" y="570">Plan</text>
    <text class="sans stage" x="982" y="570">Build</text>
    <text class="sans stage" x="1174" y="570">Check</text>
  </g>

  <path d="M700 340 V620" stroke="#DDEBFF" stroke-opacity="0.12"/>
  <path d="M887 340 V620" stroke="#DDEBFF" stroke-opacity="0.12"/>
  <path d="M1056 300 V658" stroke="#DDEBFF" stroke-opacity="0.18"/>
  <path d="M1230 340 V620" stroke="#DDEBFF" stroke-opacity="0.12"/>
  <path d="M1384 340 V570" stroke="#DDEBFF" stroke-opacity="0.12"/>

  <rect x="960" y="302" width="164" height="320" rx="18" fill="#DDEEFF" fill-opacity="0.08"/>
  <rect x="960" y="302" width="164" height="320" rx="18" stroke="#DDEEFF" stroke-opacity="0.08"/>

  <g filter="url(#blueBloom)">
    <path d="M505 490 H1402" stroke="url(#riverGlow)" stroke-width="10" stroke-linecap="round"/>
    <path d="M505 490 H1402" stroke="#E6F5FF" stroke-opacity="0.92" stroke-width="1.6" stroke-linecap="round"/>
    <path d="M505 507 H1388" stroke="#C6DFFF" stroke-opacity="0.18" stroke-width="1.2" stroke-linecap="round"/>
    <path d="M505 473 H1388" stroke="#C6DFFF" stroke-opacity="0.16" stroke-width="1.2" stroke-linecap="round"/>
  </g>

  <g filter="url(#goldBloom)">
    <path d="M1384 490 C1430 490 1439 518 1458 542 C1474 561 1482 580 1482 607 C1482 634 1491 650 1514 650 H1540" stroke="url(#branchGlow)" stroke-width="16" stroke-linecap="round"/>
    <path d="M1384 490 C1430 490 1439 518 1458 542 C1474 561 1482 580 1482 607 C1482 634 1491 650 1514 650 H1540" stroke="#FFF1CA" stroke-opacity="0.42" stroke-width="2"/>
  </g>

  <g filter="url(#blueBloom)">
    <g transform="translate(560 482) rotate(8)">
      <rect x="0" y="0" width="26" height="14" rx="4" fill="url(#softBlue)"/>
      <rect x="-12" y="4" width="6" height="4" rx="2" fill="#D7ECFF" fill-opacity="0.6"/>
      <rect x="32" y="4" width="6" height="4" rx="2" fill="#D7ECFF" fill-opacity="0.6"/>
    </g>
    <g transform="translate(752 479) rotate(11)">
      <rect x="0" y="0" width="26" height="14" rx="4" fill="url(#softBlue)"/>
      <rect x="-12" y="4" width="6" height="4" rx="2" fill="#D7ECFF" fill-opacity="0.6"/>
      <rect x="32" y="4" width="6" height="4" rx="2" fill="#D7ECFF" fill-opacity="0.6"/>
    </g>
    <g transform="translate(990 484) rotate(19)">
      <rect x="0" y="0" width="26" height="14" rx="4" fill="url(#softBlue)"/>
      <rect x="-12" y="4" width="6" height="4" rx="2" fill="#D7ECFF" fill-opacity="0.6"/>
      <rect x="32" y="4" width="6" height="4" rx="2" fill="#D7ECFF" fill-opacity="0.6"/>
    </g>
    <g transform="translate(1216 482) rotate(15)">
      <rect x="0" y="0" width="26" height="14" rx="4" fill="url(#softBlue)"/>
      <rect x="-12" y="4" width="6" height="4" rx="2" fill="#D7ECFF" fill-opacity="0.6"/>
      <rect x="32" y="4" width="6" height="4" rx="2" fill="#D7ECFF" fill-opacity="0.6"/>
    </g>
  </g>

  <g filter="url(#goldBloom)">
    <g transform="translate(1472 638) rotate(16)">
      <rect x="0" y="0" width="26" height="14" rx="4" fill="#F7E6B6"/>
      <rect x="-12" y="4" width="6" height="4" rx="2" fill="#F3DFAD" fill-opacity="0.7"/>
      <rect x="32" y="4" width="6" height="4" rx="2" fill="#F3DFAD" fill-opacity="0.7"/>
    </g>
  </g>

  <g opacity="0.68">
    <circle cx="528" cy="490" r="2.4" fill="#EDF8FF"/>
    <circle cx="646" cy="490" r="1.2" fill="#EDF8FF"/>
    <circle cx="708" cy="490" r="2" fill="#EDF8FF"/>
    <circle cx="834" cy="490" r="1.5" fill="#EDF8FF"/>
    <circle cx="874" cy="490" r="1.2" fill="#EDF8FF"/>
    <circle cx="946" cy="490" r="1.7" fill="#EDF8FF"/>
    <circle cx="1098" cy="490" r="1.1" fill="#EDF8FF"/>
    <circle cx="1148" cy="490" r="1.8" fill="#EDF8FF"/>
    <circle cx="1280" cy="490" r="1.5" fill="#EDF8FF"/>
    <circle cx="1387" cy="497" r="1.8" fill="#F6E7BA"/>
    <circle cx="1458" cy="569" r="1.6" fill="#F6E7BA"/>
  </g>

  <g filter="url(#goldBloom)">
    <circle cx="1558" cy="650" r="36" fill="#1A1510"/>
    <circle cx="1558" cy="650" r="36" stroke="#F1D9A0" stroke-width="2.6"/>
    <circle cx="1558" cy="650" r="48" stroke="#E8CE92" stroke-opacity="0.32" stroke-width="2"/>
  </g>
  <text class="sans" x="1544" y="661" fill="#F5E8C3" font-size="34px" font-weight="300">B</text>
  <text class="sans" x="1612" y="646" fill="#F3E2B8" font-size="18px" font-weight="500">Board</text>
  <text class="sans" x="1612" y="670" fill="#F3E2B8" font-size="18px" font-weight="500">Gate</text>

  <g transform="translate(305 780)" opacity="0.74">
    <rect x="0" y="0" width="72" height="42" rx="12" fill="#0D1520" stroke="#D7E8FF" stroke-opacity="0.08"/>
    <circle cx="20" cy="21" r="3" fill="#E6F2FF"/>
    <circle cx="20" cy="12" r="3" fill="#E6F2FF"/>
    <circle cx="20" cy="30" r="3" fill="#E6F2FF"/>
    <rect x="84" y="0" width="114" height="42" rx="21" fill="#E8F4FF" fill-opacity="0.88" filter="url(#softBlur)"/>
    <text class="sans subtle" x="118" y="25" fill="#4D6178">Controls</text>
  </g>

  <g transform="translate(1418 794)" filter="url(#softBlur)">
    <rect x="0" y="0" width="112" height="40" rx="20" fill="#334558"/>
    <circle cx="86" cy="20" r="18" fill="#DCEEFF"/>
  </g>

  <g transform="translate(1532 839)" opacity="0.86" filter="url(#softBlur)">
    <path d="M16 0 C17 12 20 15 32 16 C20 17 17 20 16 32 C15 20 12 17 0 16 C12 15 15 12 16 0 Z" fill="#EAF5FF"/>
  </g>
</svg>
